# Blender v2.92.0 OBJ File: 'floor_button.blend'
# www.blender.org
mtllib floor_button_base.mtl
o Cube_Cube.001
v -0.773361 0.113414 0.773361
v -0.773361 0.113414 -0.773361
v 0.773361 0.113414 0.773361
v 0.773361 0.113414 -0.773361
v -0.938263 -0.061737 0.938263
v -0.938263 -0.000000 1.000000
v -1.000000 -0.000000 0.938263
v -0.938263 -0.043655 0.981918
v -0.973907 -0.035644 0.973907
v -0.981918 -0.000000 0.981918
v -0.981918 -0.043655 0.938263
v -0.938263 -0.061737 -0.938263
v -1.000000 -0.000000 -0.938263
v -0.938263 -0.000000 -1.000000
v -0.981918 -0.043655 -0.938263
v -0.973907 -0.035644 -0.973907
v -0.981918 -0.000000 -0.981918
v -0.938263 -0.043655 -0.981918
v 0.938263 -0.061737 0.938263
v 1.000000 -0.000000 0.938263
v 0.938263 -0.000000 1.000000
v 0.981918 -0.043655 0.938263
v 0.973907 -0.035644 0.973907
v 0.981918 -0.000000 0.981918
v 0.938263 -0.043655 0.981918
v 0.938263 -0.061737 -0.938263
v 0.938263 -0.000000 -1.000000
v 1.000000 -0.000000 -0.938263
v 0.938263 -0.043655 -0.981918
v 0.973907 -0.035644 -0.973907
v 0.981918 -0.000000 -0.981918
v 0.981918 -0.043655 -0.938263
v -0.938263 0.000000 1.000000
v -0.939808 0.075462 0.939808
v -1.000000 0.000000 0.938263
v -0.939035 0.050517 0.982690
v -0.974233 0.038544 0.974233
v -0.982690 0.050517 0.939035
v -0.981598 -0.002842 0.981598
v -0.939808 0.075462 -0.939808
v -0.938263 0.000000 -1.000000
v -1.000000 0.000000 -0.938263
v -0.939035 0.047675 -0.982370
v -0.974234 0.037955 -0.974234
v -0.981918 0.000000 -0.981918
v -0.982370 0.047675 -0.939035
v 0.939808 0.075462 -0.939808
v 1.000000 0.000000 -0.938263
v 0.938263 0.000000 -1.000000
v 0.982370 0.047675 -0.939035
v 0.974234 0.037955 -0.974234
v 0.981918 0.000000 -0.981918
v 0.939035 0.047675 -0.982370
v 0.939808 0.075462 0.939808
v 0.938263 0.000000 1.000000
v 1.000000 0.000000 0.938263
v 0.939035 0.047675 0.982370
v 0.974234 0.037955 0.974234
v 0.981918 0.000000 0.981918
v 0.982370 0.047675 0.939035
vt 0.500000 0.757717
vt 0.500000 0.757717
vt 0.500000 0.992283
vt 0.500000 0.992283
vt 0.500000 0.507717
vt 0.500000 0.507717
vt 0.500000 0.742283
vt 0.500000 0.742283
vt 0.853309 0.728310
vt 0.853310 0.521690
vt 0.869239 0.505761
vt 0.869239 0.744239
vt 0.500000 0.257717
vt 0.500000 0.257717
vt 0.500000 0.492283
vt 0.500000 0.492283
vt 0.500000 0.007717
vt 0.500000 0.007717
vt 0.500000 0.242283
vt 0.500000 0.242283
vt 0.646691 0.728310
vt 0.630761 0.744239
vt 0.646691 0.521690
vt 0.630761 0.505761
vt 0.132717 0.742283
vt 0.132717 0.750000
vt 0.128262 0.750000
vt 0.125000 0.742283
vt 0.500000 1.000000
vt 0.427831 1.000000
vt 0.375000 0.992283
vt 0.375000 0.007717
vt 0.375000 0.003262
vt 0.500000 0.000000
vt 0.132717 0.507717
vt 0.125000 0.507717
vt 0.125000 0.503262
vt 0.132717 0.500000
vt 0.500000 0.250000
vt 0.427831 0.250000
vt 0.375000 0.242283
vt 0.375000 0.257717
vt 0.375000 0.253262
vt 0.367283 0.742283
vt 0.375000 0.742283
vt 0.392610 0.750000
vt 0.367283 0.750000
vt 0.500000 0.750000
vt 0.375000 0.757717
vt 0.367283 0.507717
vt 0.367283 0.500000
vt 0.391523 0.501087
vt 0.375000 0.507717
vt 0.500000 0.500000
vt 0.375000 0.492283
vt 0.625000 0.992379
vt 0.625000 0.996779
vt 0.494245 1.000000
vt 0.875000 0.742379
vt 0.875000 0.746779
vt 0.869454 0.751810
vt 0.494245 0.000000
vt 0.578041 0.000000
vt 0.625000 0.007621
vt 0.867379 0.500000
vt 0.871779 0.500000
vt 0.876810 0.505546
vt 0.500000 0.250000
vt 0.576847 0.250000
vt 0.625000 0.257621
vt 0.625000 0.242379
vt 0.625000 0.246779
vt 0.625000 0.507621
vt 0.608949 0.500000
vt 0.630546 0.498190
vt 0.500000 0.500000
vt 0.625000 0.492379
vt 0.632621 0.750000
vt 0.610023 0.748926
vt 0.623190 0.744454
vt 0.500000 0.750000
vt 0.625000 0.757621
vt 0.625000 0.742379
vt 0.875000 0.507621
vt 0.632621 0.500000
vt 0.867379 0.750000
vn 0.0000 0.0000 1.0000
vn 1.0000 0.0000 0.0000
vn -0.2223 0.9750 0.0000
vn 0.0000 0.0000 -1.0000
vn -1.0000 0.0000 0.0000
vn 0.0000 0.9750 0.2223
vn 0.2223 0.9750 0.0000
vn 0.0000 0.9750 -0.2223
vn -0.3251 -0.8881 0.3251
vn -0.3251 -0.3251 0.8881
vn -0.8881 -0.3251 0.3251
vn -0.3251 -0.8881 -0.3251
vn -0.8881 -0.3251 -0.3251
vn -0.3251 -0.3251 -0.8881
vn 0.3251 -0.8881 0.3251
vn 0.8881 -0.3251 0.3251
vn 0.3251 -0.3251 0.8881
vn 0.3251 -0.8881 -0.3251
vn 0.3251 -0.3251 -0.8881
vn 0.8881 -0.3251 -0.3251
vn -0.3565 0.2660 0.8956
vn -0.4272 0.7968 0.4272
vn -0.8956 0.2660 0.3565
vn -0.4315 0.7922 -0.4315
vn -0.3340 0.2919 -0.8962
vn -0.8962 0.2919 -0.3340
vn 0.4315 0.7922 -0.4315
vn 0.8962 0.2919 -0.3340
vn 0.3340 0.2919 -0.8962
vn 0.4315 0.7922 0.4315
vn 0.3340 0.2919 0.8962
vn 0.8962 0.2919 0.3340
vn -0.3827 -0.9239 0.0000
vn -0.9239 -0.3827 0.0000
vn 0.3786 0.1455 -0.9140
vn 0.9140 0.1455 -0.3786
vn -0.5252 0.8510 -0.0007
vn -0.9421 0.3352 -0.0003
vn -0.3827 0.0000 -0.9239
vn -0.9239 0.0000 -0.3827
vn 0.0000 -0.9239 -0.3827
vn 0.0000 -0.3827 -0.9239
vn 0.0000 0.8373 -0.5467
vn 0.0000 0.3468 -0.9379
vn 0.9239 0.0000 -0.3827
vn 0.3827 0.0000 -0.9239
vn 0.3827 -0.9239 0.0000
vn 0.9239 -0.3827 0.0000
vn 0.5467 0.8373 0.0000
vn 0.9379 0.3468 0.0000
vn 0.3827 0.0000 0.9239
vn 0.9239 0.0000 0.3827
vn 0.0000 -0.9239 0.3827
vn 0.0000 -0.3827 0.9239
vn 0.0007 0.8510 0.5252
vn 0.0003 0.3352 0.9421
vn 0.0000 -1.0000 0.0000
usemtl BaseMaterial
s off
f 21/1/1 55/2/1 33/3/1 6/4/1
f 28/5/2 48/6/2 56/7/2 20/8/2
f 1/9/3 2/10/3 40/11/3 34/12/3
f 14/13/4 41/14/4 49/15/4 27/16/4
f 7/17/5 35/18/5 42/19/5 13/20/5
f 3/21/6 1/9/6 34/12/6 54/22/6
f 4/23/7 3/21/7 54/22/7 47/24/7
f 2/10/8 4/23/8 47/24/8 40/11/8
f 5/25/9 8/26/9 9/27/9 11/28/9
f 6/4/10 10/29/10 9/30/10 8/31/10
f 7/17/11 11/32/11 9/33/11 10/34/11
f 12/35/12 15/36/12 16/37/12 18/38/12
f 13/20/13 17/39/13 16/40/13 15/41/13
f 14/13/14 18/42/14 16/43/14 17/39/14
f 19/44/15 22/45/15 23/46/15 25/47/15
f 20/8/16 24/48/16 23/46/16 22/45/16
f 21/1/17 25/49/17 23/46/17 24/48/17
f 26/50/18 29/51/18 30/52/18 32/53/18
f 27/16/19 31/54/19 30/52/19 29/55/19
f 28/5/20 32/53/20 30/52/20 31/54/20
f 33/3/21 36/56/21 37/57/21 39/58/21
f 34/12/22 38/59/22 37/60/22 36/61/22
f 35/18/23 39/62/23 37/63/23 38/64/23
f 40/11/24 43/65/24 44/66/24 46/67/24
f 41/14/25 45/68/25 44/69/25 43/70/25
f 42/19/26 46/71/26 44/72/26 45/68/26
f 47/24/27 50/73/27 51/74/27 53/75/27
f 48/6/28 52/76/28 51/74/28 50/73/28
f 49/15/29 53/77/29 51/74/29 52/76/29
f 54/22/30 57/78/30 58/79/30 60/80/30
f 55/2/31 59/81/31 58/79/31 57/82/31
f 56/7/32 60/83/32 58/79/32 59/81/32
f 12/35/33 5/25/33 11/28/33 15/36/33
f 15/41/34 11/32/34 7/17/34 13/20/34
f 6/4/35 33/3/35 39/58/35 10/29/35
f 10/34/36 39/62/36 35/18/36 7/17/36
f 34/12/37 40/11/37 46/84/37 38/59/37
f 38/64/38 46/71/38 42/19/38 35/18/38
f 41/14/39 14/13/39 17/39/39 45/68/39
f 45/68/40 17/39/40 13/20/40 42/19/40
f 26/50/41 12/35/41 18/38/41 29/51/41
f 29/55/42 18/42/42 14/13/42 27/16/42
f 40/11/43 47/24/43 53/85/43 43/65/43
f 43/70/44 53/77/44 49/15/44 41/14/44
f 48/6/45 28/5/45 31/54/45 52/76/45
f 52/76/46 31/54/46 27/16/46 49/15/46
f 19/44/47 26/50/47 32/53/47 22/45/47
f 22/45/48 32/53/48 28/5/48 20/8/48
f 47/24/49 54/22/49 60/83/49 50/73/49
f 50/73/50 60/83/50 56/7/50 48/6/50
f 55/2/51 21/1/51 24/48/51 59/81/51
f 59/81/52 24/48/52 20/8/52 56/7/52
f 5/25/53 19/44/53 25/47/53 8/26/53
f 8/31/54 25/49/54 21/1/54 6/4/54
f 54/22/55 34/12/55 36/86/55 57/78/55
f 57/82/56 36/56/56 33/3/56 55/2/56
f 12/35/57 26/50/57 19/44/57 5/25/57
