# Blender v2.91.0 OBJ File: 'lightSource.blend'
# www.blender.org
mtllib lightSource.mtl
o Cilindro.008_Cilindro.009
v 0.001295 -2.130082 0.000225
v 0.001555 -2.130082 0.000225
v 0.001685 -2.130082 -0.000000
v 0.001555 -2.130082 -0.000225
v 0.001295 -2.130082 -0.000225
v 0.001166 -2.130082 -0.000000
v 0.001685 -2.916007 -0.000000
v 0.001555 -2.916007 0.000225
v 0.001295 -2.916007 0.000225
v 0.001165 -2.916007 -0.000000
v 0.001295 -2.916007 -0.000225
v 0.001555 -2.916007 -0.000225
v 0.001295 -2.522651 -0.149775
v 0.001555 -2.522651 -0.149775
v 0.001555 -2.523439 -0.149775
v 0.001295 -2.523438 -0.149775
v -0.128219 -2.522651 -0.075000
v -0.128219 -2.523438 -0.075000
v -0.128349 -2.523438 -0.074775
v -0.128349 -2.522651 -0.074775
v -0.128349 -2.522651 0.074775
v -0.128349 -2.523438 0.074775
v -0.128219 -2.523438 0.075000
v -0.128219 -2.522651 0.075000
v 0.001295 -2.522651 0.149775
v 0.001295 -2.523439 0.149775
v 0.001555 -2.523438 0.149775
v 0.001555 -2.522651 0.149775
v 0.131069 -2.522651 0.075000
v 0.131069 -2.523439 0.075000
v 0.131199 -2.523439 0.074775
v 0.131199 -2.522651 0.074775
v 0.131199 -2.522651 -0.074775
v 0.131199 -2.523439 -0.074775
v 0.131069 -2.523439 -0.075000
v 0.131069 -2.522651 -0.075000
v 0.000866 -1.497000 0.001500
v -0.000866 -1.497000 0.001500
v -0.001732 -1.497000 -0.000000
v -0.000866 -1.497000 -0.001500
v 0.000866 -1.497000 -0.001500
v 0.001732 -1.497000 -0.000000
v -0.001732 1.497000 -0.000000
v -0.000866 1.497000 0.001500
v 0.000866 1.497000 0.001500
v 0.001732 1.497000 -0.000000
v 0.000866 1.497000 -0.001500
v -0.000866 1.497000 -0.001500
v 0.000866 -0.001500 -0.998500
v -0.000866 -0.001500 -0.998500
v -0.000866 0.001500 -0.998500
v 0.000866 0.001500 -0.998500
v 0.864293 -0.001500 -0.500000
v 0.864293 0.001500 -0.500000
v 0.865159 0.001500 -0.498500
v 0.865159 -0.001500 -0.498500
v 0.865159 -0.001500 0.498500
v 0.865159 0.001500 0.498500
v 0.864293 0.001500 0.500000
v 0.864293 -0.001500 0.500000
v 0.000866 -0.001500 0.998500
v 0.000866 0.001500 0.998500
v -0.000866 0.001500 0.998500
v -0.000866 -0.001500 0.998500
v -0.864293 -0.001500 0.500000
v -0.864293 0.001500 0.500000
v -0.865159 0.001500 0.498500
v -0.865159 -0.001500 0.498500
v -0.865159 -0.001500 -0.498500
v -0.865159 0.001500 -0.498500
v -0.864293 0.001500 -0.500000
v -0.864293 -0.001500 -0.500000
v 0.000130 2.151516 0.000225
v -0.000130 2.151516 0.000225
v -0.000260 2.151516 -0.000000
v -0.000130 2.151516 -0.000225
v 0.000130 2.151516 -0.000225
v 0.000260 2.151516 -0.000000
v -0.000260 2.937441 -0.000000
v -0.000130 2.937441 0.000225
v 0.000130 2.937441 0.000225
v 0.000260 2.937441 -0.000000
v 0.000130 2.937441 -0.000225
v -0.000130 2.937441 -0.000225
v 0.000130 2.544084 -0.149775
v -0.000130 2.544084 -0.149775
v -0.000130 2.544872 -0.149775
v 0.000130 2.544872 -0.149775
v 0.129644 2.544084 -0.075000
v 0.129644 2.544872 -0.075000
v 0.129774 2.544872 -0.074775
v 0.129774 2.544084 -0.074775
v 0.129774 2.544084 0.074775
v 0.129774 2.544872 0.074775
v 0.129644 2.544872 0.075000
v 0.129644 2.544084 0.075000
v 0.000130 2.544084 0.149775
v 0.000130 2.544872 0.149775
v -0.000130 2.544872 0.149775
v -0.000130 2.544084 0.149775
v -0.129644 2.544084 0.075000
v -0.129644 2.544872 0.075000
v -0.129774 2.544872 0.074775
v -0.129774 2.544084 0.074775
v -0.129774 2.544084 -0.074775
v -0.129774 2.544872 -0.074775
v -0.129644 2.544872 -0.075000
v -0.129644 2.544084 -0.075000
v 0.000130 1.761861 0.000225
v -0.000130 1.761861 0.000225
v -0.000260 1.761861 -0.000000
v -0.000130 1.761861 -0.000225
v 0.000130 1.761861 -0.000225
v 0.000260 1.761861 -0.000000
v -0.000260 2.027097 -0.000000
v -0.000130 2.027097 0.000225
v 0.000130 2.027097 0.000225
v 0.000260 2.027097 -0.000000
v 0.000130 2.027097 -0.000225
v -0.000130 2.027097 -0.000225
v 0.000130 1.894346 -0.149775
v -0.000130 1.894346 -0.149775
v -0.000130 1.894612 -0.149775
v 0.000130 1.894612 -0.149775
v 0.129644 1.894346 -0.075000
v 0.129644 1.894612 -0.075000
v 0.129774 1.894612 -0.074775
v 0.129774 1.894346 -0.074775
v 0.129774 1.894346 0.074775
v 0.129774 1.894612 0.074775
v 0.129644 1.894612 0.075000
v 0.129644 1.894346 0.075000
v 0.000130 1.894346 0.149775
v 0.000130 1.894612 0.149775
v -0.000130 1.894612 0.149775
v -0.000130 1.894346 0.149775
v -0.129644 1.894346 0.075000
v -0.129644 1.894612 0.075000
v -0.129774 1.894612 0.074775
v -0.129774 1.894346 0.074775
v -0.129774 1.894346 -0.074775
v -0.129774 1.894612 -0.074775
v -0.129644 1.894612 -0.075000
v -0.129644 1.894346 -0.075000
v 0.001295 -1.740427 0.000225
v 0.001555 -1.740427 0.000225
v 0.001685 -1.740427 -0.000000
v 0.001555 -1.740427 -0.000225
v 0.001295 -1.740427 -0.000225
v 0.001166 -1.740427 -0.000000
v 0.001685 -2.005662 -0.000000
v 0.001555 -2.005662 0.000225
v 0.001295 -2.005662 0.000225
v 0.001166 -2.005662 -0.000000
v 0.001295 -2.005662 -0.000225
v 0.001555 -2.005662 -0.000225
v 0.001295 -1.872912 -0.149775
v 0.001555 -1.872912 -0.149775
v 0.001555 -1.873178 -0.149775
v 0.001295 -1.873178 -0.149775
v -0.128219 -1.872912 -0.075000
v -0.128219 -1.873178 -0.075000
v -0.128349 -1.873178 -0.074775
v -0.128349 -1.872912 -0.074775
v -0.128349 -1.872912 0.074775
v -0.128349 -1.873178 0.074775
v -0.128219 -1.873178 0.075000
v -0.128219 -1.872912 0.075000
v 0.001295 -1.872912 0.149775
v 0.001295 -1.873178 0.149775
v 0.001555 -1.873178 0.149775
v 0.001555 -1.872912 0.149775
v 0.131069 -1.872912 0.075000
v 0.131069 -1.873178 0.075000
v 0.131199 -1.873178 0.074775
v 0.131199 -1.872912 0.074775
v 0.131199 -1.872912 -0.074775
v 0.131199 -1.873178 -0.074775
v 0.131069 -1.873178 -0.075000
v 0.131069 -1.872912 -0.075000
vt 0.832833 0.508062
vt 0.500500 0.757313
vt 0.666667 0.508062
vt 0.666333 0.508062
vt 0.500167 0.757313
vt 0.500167 0.508063
vt 0.166833 0.508062
vt 0.499167 0.757312
vt 0.000667 0.508062
vt 0.499833 0.508062
vt 0.499833 0.757312
vt 0.333667 0.508062
vt 0.999333 0.508062
vt 0.500833 0.757312
vt 0.833167 0.508062
vt 0.499500 0.258312
vt 0.333333 0.507563
vt 0.167167 0.507562
vt 0.333333 0.508062
vt 0.499500 0.757312
vt 0.167167 0.508062
vt 0.500833 0.258312
vt 0.999333 0.507563
vt 0.833167 0.507563
vt 0.500500 0.258312
vt 0.832833 0.507563
vt 0.666667 0.507562
vt 0.499833 0.258312
vt 0.499833 0.507563
vt 0.333667 0.507563
vt 0.499167 0.258312
vt 0.166833 0.507563
vt 0.000667 0.507563
vt 0.500119 0.258205
vt 0.500000 0.258250
vt 0.499708 0.258250
vt 0.499833 0.258063
vt 0.499958 0.257875
vt 0.500000 0.258062
vt 0.499619 0.757420
vt 0.499708 0.757375
vt 0.500000 0.757375
vt 0.500000 0.757562
vt 0.499958 0.757750
vt 0.499833 0.757563
vt 0.000595 0.507455
vt 0.000625 0.507500
vt 0.000250 0.507812
vt 0.000125 0.507750
vt 0.666333 0.507563
vt 0.500167 0.507562
vt 0.500167 0.258312
vt 0.499125 0.258250
vt 0.499125 0.757375
vt 0.000625 0.508125
vt 0.832833 0.508062
vt 0.500500 0.757313
vt 0.666667 0.508062
vt 0.666333 0.508062
vt 0.500167 0.757313
vt 0.500167 0.508063
vt 0.166833 0.508062
vt 0.499167 0.757312
vt 0.000667 0.508062
vt 0.499833 0.508062
vt 0.499833 0.757312
vt 0.333667 0.508062
vt 0.999333 0.508062
vt 0.500833 0.757312
vt 0.833167 0.508062
vt 0.499500 0.258312
vt 0.333333 0.507563
vt 0.167167 0.507562
vt 0.333333 0.508062
vt 0.499500 0.757312
vt 0.167167 0.508062
vt 0.500833 0.258312
vt 0.999333 0.507563
vt 0.833167 0.507563
vt 0.500500 0.258312
vt 0.832833 0.507563
vt 0.666667 0.507562
vt 0.499833 0.258312
vt 0.499833 0.507563
vt 0.333667 0.507563
vt 0.499167 0.258312
vt 0.166833 0.507563
vt 0.000667 0.507563
vt 0.500119 0.258205
vt 0.500000 0.258250
vt 0.499708 0.258250
vt 0.499833 0.258063
vt 0.499958 0.257875
vt 0.500000 0.258062
vt 0.499619 0.757420
vt 0.499708 0.757375
vt 0.500000 0.757375
vt 0.500000 0.757562
vt 0.499958 0.757750
vt 0.499833 0.757563
vt 0.000595 0.507455
vt 0.000625 0.507500
vt 0.000250 0.507812
vt 0.000125 0.507750
vt 0.666333 0.507563
vt 0.500167 0.507562
vt 0.500167 0.258312
vt 0.499125 0.258250
vt 0.499125 0.757375
vt 0.000625 0.508125
vt 0.832833 0.508062
vt 0.500500 0.757313
vt 0.666667 0.508062
vt 0.666333 0.508062
vt 0.500167 0.757313
vt 0.500167 0.508063
vt 0.166833 0.508062
vt 0.499167 0.757312
vt 0.000667 0.508062
vt 0.499833 0.508062
vt 0.499833 0.757312
vt 0.333667 0.508062
vt 0.999333 0.508062
vt 0.500833 0.757312
vt 0.833167 0.508062
vt 0.499500 0.258312
vt 0.333333 0.507563
vt 0.167167 0.507562
vt 0.333333 0.508062
vt 0.499500 0.757312
vt 0.167167 0.508062
vt 0.500833 0.258312
vt 0.999333 0.507563
vt 0.833167 0.507563
vt 0.500500 0.258312
vt 0.832833 0.507563
vt 0.666667 0.507562
vt 0.499833 0.258312
vt 0.499833 0.507563
vt 0.333667 0.507563
vt 0.499167 0.258312
vt 0.166833 0.507563
vt 0.000667 0.507563
vt 0.500119 0.258205
vt 0.500000 0.258250
vt 0.499708 0.258250
vt 0.499833 0.258063
vt 0.499958 0.257875
vt 0.500000 0.258062
vt 0.499619 0.757420
vt 0.499708 0.757375
vt 0.500000 0.757375
vt 0.500000 0.757562
vt 0.499958 0.757750
vt 0.499833 0.757563
vt 0.000595 0.507455
vt 0.000625 0.507500
vt 0.000250 0.507812
vt 0.000125 0.507750
vt 0.666333 0.507563
vt 0.500167 0.507562
vt 0.500167 0.258312
vt 0.499125 0.258250
vt 0.499125 0.757375
vt 0.000625 0.508125
vt 0.832833 0.508062
vt 0.500500 0.757313
vt 0.666667 0.508062
vt 0.666333 0.508062
vt 0.500167 0.757313
vt 0.500167 0.508063
vt 0.166833 0.508062
vt 0.499167 0.757312
vt 0.000667 0.508062
vt 0.499833 0.508062
vt 0.499833 0.757312
vt 0.333667 0.508062
vt 0.999333 0.508062
vt 0.500833 0.757312
vt 0.833167 0.508062
vt 0.499500 0.258312
vt 0.333333 0.507563
vt 0.167167 0.507562
vt 0.333333 0.508062
vt 0.499500 0.757312
vt 0.167167 0.508062
vt 0.500833 0.258312
vt 0.999333 0.507563
vt 0.833167 0.507563
vt 0.500500 0.258312
vt 0.832833 0.507563
vt 0.666667 0.507562
vt 0.499833 0.258312
vt 0.499833 0.507563
vt 0.333667 0.507563
vt 0.499167 0.258312
vt 0.166833 0.507563
vt 0.000667 0.507563
vt 0.500119 0.258205
vt 0.500000 0.258250
vt 0.499708 0.258250
vt 0.499833 0.258063
vt 0.499958 0.257875
vt 0.500000 0.258062
vt 0.499619 0.757420
vt 0.499708 0.757375
vt 0.500000 0.757375
vt 0.500000 0.757562
vt 0.499958 0.757750
vt 0.499833 0.757563
vt 0.000595 0.507455
vt 0.000625 0.507500
vt 0.000250 0.507812
vt 0.000125 0.507750
vt 0.666333 0.507563
vt 0.500167 0.507562
vt 0.500167 0.258312
vt 0.499125 0.258250
vt 0.499125 0.757375
vt 0.000625 0.508125
vt 0.832833 0.508062
vt 0.500500 0.757313
vt 0.666667 0.508062
vt 0.666333 0.508062
vt 0.500167 0.757313
vt 0.500167 0.508063
vt 0.166833 0.508062
vt 0.499167 0.757312
vt 0.000667 0.508062
vt 0.499833 0.508062
vt 0.499833 0.757312
vt 0.333667 0.508062
vt 0.999333 0.508062
vt 0.500833 0.757312
vt 0.833167 0.508062
vt 0.499500 0.258312
vt 0.333333 0.507563
vt 0.167167 0.507562
vt 0.333333 0.508062
vt 0.499500 0.757312
vt 0.167167 0.508062
vt 0.500833 0.258312
vt 0.999333 0.507563
vt 0.833167 0.507563
vt 0.500500 0.258312
vt 0.832833 0.507563
vt 0.666667 0.507562
vt 0.499833 0.258312
vt 0.499833 0.507563
vt 0.333667 0.507563
vt 0.499167 0.258312
vt 0.166833 0.507563
vt 0.000667 0.507563
vt 0.500119 0.258205
vt 0.500000 0.258250
vt 0.499708 0.258250
vt 0.499833 0.258063
vt 0.499958 0.257875
vt 0.500000 0.258062
vt 0.499619 0.757420
vt 0.499708 0.757375
vt 0.500000 0.757375
vt 0.500000 0.757562
vt 0.499958 0.757750
vt 0.499833 0.757563
vt 0.000595 0.507455
vt 0.000625 0.507500
vt 0.000250 0.507812
vt 0.000125 0.507750
vt 0.666333 0.507563
vt 0.500167 0.507562
vt 0.500167 0.258312
vt 0.499125 0.258250
vt 0.499125 0.757375
vt 0.000625 0.508125
vn -0.9500 -0.1711 -0.2612
vn -0.6550 -0.7556 -0.0002
vn -0.9500 -0.1711 0.2612
vn -0.7013 -0.1711 0.6919
vn -0.3275 -0.7557 0.5671
vn -0.2487 -0.1712 0.9533
vn 0.7013 -0.1711 -0.6920
vn 0.3275 -0.7556 -0.5673
vn 0.2487 -0.1712 -0.9533
vn 0.2488 -0.1711 0.9533
vn 0.3276 -0.7557 0.5671
vn 0.7013 -0.1711 0.6920
vn -0.2488 -0.1711 -0.9533
vn -0.3276 -0.7555 -0.5673
vn -0.7013 -0.1711 -0.6920
vn 0.6550 0.7556 0.0001
vn 0.9499 0.1711 0.2613
vn 0.9499 0.1711 -0.2613
vn 0.9500 -0.1711 0.2612
vn 0.6550 -0.7556 -0.0002
vn 0.9500 -0.1711 -0.2612
vn -0.3275 0.7556 -0.5672
vn -0.2487 0.1712 -0.9533
vn -0.7013 0.1711 -0.6920
vn -0.6550 0.7556 0.0001
vn -0.9499 0.1711 -0.2613
vn -0.9499 0.1711 0.2613
vn 0.3274 0.7556 0.5673
vn 0.2487 0.1712 0.9533
vn 0.7013 0.1711 0.6920
vn 0.3276 0.7556 -0.5672
vn 0.7013 0.1711 -0.6920
vn 0.2488 0.1711 -0.9533
vn -0.3275 0.7555 0.5673
vn -0.7013 0.1711 0.6920
vn -0.2488 0.1711 0.9533
vn 0.9273 0.2714 -0.2576
vn 0.5554 0.8316 0.0000
vn 0.9273 0.2714 0.2576
vn 0.6868 0.2714 0.6743
vn 0.2777 0.8316 0.4810
vn 0.2406 0.2714 0.9319
vn -0.6867 0.2714 -0.6743
vn -0.2777 0.8316 -0.4810
vn -0.2406 0.2714 -0.9319
vn -0.2406 0.2714 0.9319
vn -0.2777 0.8316 0.4810
vn -0.6867 0.2714 0.6743
vn 0.2406 0.2714 -0.9319
vn 0.2777 0.8316 -0.4810
vn 0.6868 0.2714 -0.6743
vn -0.5554 -0.8316 0.0000
vn -0.9273 -0.2714 0.2576
vn -0.9273 -0.2714 -0.2576
vn -0.9273 0.2714 0.2576
vn -0.5554 0.8316 0.0000
vn -0.9273 0.2714 -0.2576
vn 0.2777 -0.8316 -0.4810
vn 0.2406 -0.2714 -0.9319
vn 0.6868 -0.2714 -0.6743
vn 0.5554 -0.8316 0.0000
vn 0.9273 -0.2714 -0.2576
vn 0.9273 -0.2714 0.2576
vn -0.2777 -0.8315 0.4810
vn -0.2406 -0.2714 0.9319
vn -0.6867 -0.2714 0.6743
vn -0.2777 -0.8316 -0.4810
vn -0.6867 -0.2714 -0.6743
vn -0.2406 -0.2714 -0.9319
vn 0.2777 -0.8316 0.4810
vn 0.6868 -0.2714 0.6743
vn 0.2406 -0.2714 0.9319
vn 0.6550 0.7556 -0.0002
vn 0.7012 0.1711 0.6921
vn 0.3275 0.7557 0.5671
vn 0.2487 0.1711 0.9533
vn -0.7012 0.1711 -0.6921
vn -0.3275 0.7555 -0.5673
vn -0.2487 0.1711 -0.9533
vn -0.2487 0.1711 0.9533
vn -0.3275 0.7557 0.5671
vn -0.7012 0.1711 0.6921
vn 0.2487 0.1711 -0.9533
vn 0.3275 0.7555 -0.5673
vn 0.7012 0.1711 -0.6920
vn -0.9499 -0.1711 0.2613
vn -0.9499 -0.1711 -0.2613
vn -0.6550 0.7556 -0.0002
vn 0.3275 -0.7555 -0.5673
vn 0.2487 -0.1711 -0.9533
vn 0.7012 -0.1711 -0.6920
vn 0.9499 -0.1711 -0.2613
vn 0.9499 -0.1711 0.2613
vn -0.3275 -0.7556 0.5672
vn -0.2487 -0.1711 0.9533
vn -0.7012 -0.1711 0.6921
vn -0.3274 -0.7555 -0.5674
vn -0.7012 -0.1711 -0.6921
vn -0.2487 -0.1711 -0.9533
vn 0.3275 -0.7557 0.5671
vn 0.7012 -0.1711 0.6921
vn 0.2487 -0.1711 0.9533
vn 0.8904 0.3814 -0.2484
vn 0.4270 0.9042 0.0000
vn 0.8904 0.3814 0.2484
vn 0.6603 0.3814 0.6468
vn 0.2135 0.9043 0.3697
vn 0.2301 0.3814 0.8953
vn -0.6603 0.3814 -0.6468
vn -0.2135 0.9043 -0.3697
vn -0.2301 0.3814 -0.8953
vn -0.2301 0.3814 0.8953
vn -0.2135 0.9043 0.3697
vn -0.6603 0.3814 0.6468
vn 0.2301 0.3814 -0.8953
vn 0.2135 0.9043 -0.3697
vn 0.6603 0.3814 -0.6468
vn -0.4270 -0.9042 0.0000
vn -0.8904 -0.3814 0.2484
vn -0.8904 -0.3814 -0.2484
vn -0.8904 0.3814 0.2484
vn -0.4270 0.9042 0.0000
vn -0.8904 0.3814 -0.2484
vn 0.2135 -0.9043 -0.3697
vn 0.2301 -0.3814 -0.8953
vn 0.6603 -0.3814 -0.6468
vn 0.4270 -0.9042 0.0001
vn 0.8904 -0.3814 -0.2484
vn 0.8904 -0.3814 0.2484
vn -0.2135 -0.9042 0.3698
vn -0.2301 -0.3814 0.8953
vn -0.6603 -0.3814 0.6469
vn -0.2135 -0.9042 -0.3698
vn -0.6603 -0.3814 -0.6469
vn -0.2301 -0.3814 -0.8953
vn 0.2135 -0.9042 0.3698
vn 0.6603 -0.3814 0.6469
vn 0.2301 -0.3814 0.8953
vn -0.8904 -0.3814 -0.2483
vn -0.8904 -0.3814 0.2483
vn -0.6605 -0.3814 0.6467
vn -0.2135 -0.9043 0.3697
vn -0.2302 -0.3814 0.8953
vn 0.6604 -0.3814 -0.6468
vn 0.2135 -0.9043 0.3697
vn 0.6604 -0.3814 0.6468
vn -0.2135 -0.9043 -0.3697
vn -0.6604 -0.3815 -0.6468
vn 0.8904 0.3815 0.2482
vn 0.8904 0.3815 -0.2482
vn 0.8904 -0.3814 0.2483
vn 0.4270 -0.9042 0.0000
vn 0.8904 -0.3814 -0.2483
vn -0.2135 0.9042 -0.3698
vn -0.6603 0.3814 -0.6469
vn 0.6604 0.3815 0.6468
vn 0.2135 0.9043 -0.3696
vn 0.6604 0.3815 -0.6468
vn -0.2135 0.9042 0.3698
vn -0.6604 0.3814 0.6468
vn -0.2302 0.3814 0.8953
usemtl None
s 1
f 19/1/1 10/2/2 22/3/3
f 23/4/4 9/5/5 26/6/6
f 35/7/7 12/8/8 15/9/9
f 27/10/10 8/11/11 30/12/12
f 16/13/13 11/14/14 18/15/15
f 3/16/16 32/17/17 33/18/18
f 31/19/19 7/20/20 34/21/21
f 5/22/22 13/23/23 17/24/24
f 6/25/25 20/26/26 21/27/27
f 2/28/28 28/29/29 29/30/30
f 4/31/31 36/32/32 14/33/33
f 1/34/34 2/35/28 3/36/16 4/37/31 5/38/22 6/39/25
f 7/40/20 8/41/11 9/42/5 10/43/2 11/44/14 12/45/8
f 13/46/23 14/47/33 15/48/9 16/49/13
f 17/24/24 18/15/15 19/1/1 20/26/26
f 21/27/27 22/3/3 23/4/4 24/50/35
f 25/51/36 26/6/6 27/10/10 28/29/29
f 29/30/30 30/12/12 31/19/19 32/17/17
f 33/18/18 34/21/21 35/7/7 36/32/32
f 28/29/29 2/28/28 1/52/34 25/51/36
f 4/31/31 14/33/33 13/46/23 5/53/22
f 36/32/32 4/31/31 3/16/16 33/18/18
f 32/17/17 3/16/16 2/28/28 29/30/30
f 24/50/35 1/52/34 6/25/25 21/27/27
f 7/20/20 31/19/19 30/12/12 8/11/11
f 20/26/26 6/25/25 5/22/22 17/24/24
f 35/7/7 15/9/9 14/33/33 36/32/32
f 31/19/19 34/21/21 33/18/18 32/17/17
f 27/10/10 30/12/12 29/30/30 28/29/29
f 23/4/4 26/6/6 25/51/36 24/50/35
f 19/1/1 22/3/3 21/27/27 20/26/26
f 16/13/13 18/15/15 17/24/24 13/23/23
f 15/9/9 12/8/8 11/54/14 16/55/13
f 10/2/2 19/1/1 18/15/15 11/14/14
f 9/5/5 23/4/4 22/3/3 10/2/2
f 8/11/11 27/10/10 26/6/6 9/5/5
f 12/8/8 35/7/7 34/21/21 7/20/20
f 1/52/34 24/50/35 25/51/36
f 55/56/37 46/57/38 58/58/39
f 59/59/40 45/60/41 62/61/42
f 71/62/43 48/63/44 51/64/45
f 63/65/46 44/66/47 66/67/48
f 52/68/49 47/69/50 54/70/51
f 39/71/52 68/72/53 69/73/54
f 67/74/55 43/75/56 70/76/57
f 41/77/58 49/78/59 53/79/60
f 42/80/61 56/81/62 57/82/63
f 38/83/64 64/84/65 65/85/66
f 40/86/67 72/87/68 50/88/69
f 37/89/70 38/90/64 39/91/52 40/92/67 41/93/58 42/94/61
f 43/95/56 44/96/47 45/97/41 46/98/38 47/99/50 48/100/44
f 49/101/59 50/102/69 51/103/45 52/104/49
f 53/79/60 54/70/51 55/56/37 56/81/62
f 57/82/63 58/58/39 59/59/40 60/105/71
f 61/106/72 62/61/42 63/65/46 64/84/65
f 65/85/66 66/67/48 67/74/55 68/72/53
f 69/73/54 70/76/57 71/62/43 72/87/68
f 64/84/65 38/83/64 37/107/70 61/106/72
f 40/86/67 50/88/69 49/101/59 41/108/58
f 72/87/68 40/86/67 39/71/52 69/73/54
f 68/72/53 39/71/52 38/83/64 65/85/66
f 60/105/71 37/107/70 42/80/61 57/82/63
f 43/75/56 67/74/55 66/67/48 44/66/47
f 56/81/62 42/80/61 41/77/58 53/79/60
f 71/62/43 51/64/45 50/88/69 72/87/68
f 67/74/55 70/76/57 69/73/54 68/72/53
f 63/65/46 66/67/48 65/85/66 64/84/65
f 59/59/40 62/61/42 61/106/72 60/105/71
f 55/56/37 58/58/39 57/82/63 56/81/62
f 52/68/49 54/70/51 53/79/60 49/78/59
f 51/64/45 48/63/44 47/109/50 52/110/49
f 46/57/38 55/56/37 54/70/51 47/69/50
f 45/60/41 59/59/40 58/58/39 46/57/38
f 44/66/47 63/65/46 62/61/42 45/60/41
f 48/63/44 71/62/43 70/76/57 43/75/56
f 37/107/70 60/105/71 61/106/72
f 91/111/18 82/112/73 94/113/17
f 95/114/74 81/115/75 98/116/76
f 107/117/77 84/118/78 87/119/79
f 99/120/80 80/121/81 102/122/82
f 88/123/83 83/124/84 90/125/85
f 75/126/2 104/127/86 105/128/87
f 103/129/27 79/130/88 106/131/26
f 77/132/89 85/133/90 89/134/91
f 78/135/20 92/136/92 93/137/93
f 74/138/94 100/139/95 101/140/96
f 76/141/97 108/142/98 86/143/99
f 73/144/100 74/145/94 75/146/2 76/147/97 77/148/89 78/149/20
f 79/150/88 80/151/81 81/152/75 82/153/73 83/154/84 84/155/78
f 85/156/90 86/157/99 87/158/79 88/159/83
f 89/134/91 90/125/85 91/111/18 92/136/92
f 93/137/93 94/113/17 95/114/74 96/160/101
f 97/161/102 98/116/76 99/120/80 100/139/95
f 101/140/96 102/122/82 103/129/27 104/127/86
f 105/128/87 106/131/26 107/117/77 108/142/98
f 100/139/95 74/138/94 73/162/100 97/161/102
f 76/141/97 86/143/99 85/156/90 77/163/89
f 108/142/98 76/141/97 75/126/2 105/128/87
f 104/127/86 75/126/2 74/138/94 101/140/96
f 96/160/101 73/162/100 78/135/20 93/137/93
f 79/130/88 103/129/27 102/122/82 80/121/81
f 92/136/92 78/135/20 77/132/89 89/134/91
f 107/117/77 87/119/79 86/143/99 108/142/98
f 103/129/27 106/131/26 105/128/87 104/127/86
f 99/120/80 102/122/82 101/140/96 100/139/95
f 95/114/74 98/116/76 97/161/102 96/160/101
f 91/111/18 94/113/17 93/137/93 92/136/92
f 88/123/83 90/125/85 89/134/91 85/133/90
f 87/119/79 84/118/78 83/164/84 88/165/83
f 82/112/73 91/111/18 90/125/85 83/124/84
f 81/115/75 95/114/74 94/113/17 82/112/73
f 80/121/81 99/120/80 98/116/76 81/115/75
f 84/118/78 107/117/77 106/131/26 79/130/88
f 73/162/100 96/160/101 97/161/102
f 127/166/103 118/167/104 130/168/105
f 131/169/106 117/170/107 134/171/108
f 143/172/109 120/173/110 123/174/111
f 135/175/112 116/176/113 138/177/114
f 124/178/115 119/179/116 126/180/117
f 111/181/118 140/182/119 141/183/120
f 139/184/121 115/185/122 142/186/123
f 113/187/124 121/188/125 125/189/126
f 114/190/127 128/191/128 129/192/129
f 110/193/130 136/194/131 137/195/132
f 112/196/133 144/197/134 122/198/135
f 109/199/136 110/200/130 111/201/118 112/202/133 113/203/124 114/204/127
f 115/205/122 116/206/113 117/207/107 118/208/104 119/209/116 120/210/110
f 121/211/125 122/212/135 123/213/111 124/214/115
f 125/189/126 126/180/117 127/166/103 128/191/128
f 129/192/129 130/168/105 131/169/106 132/215/137
f 133/216/138 134/171/108 135/175/112 136/194/131
f 137/195/132 138/177/114 139/184/121 140/182/119
f 141/183/120 142/186/123 143/172/109 144/197/134
f 136/194/131 110/193/130 109/217/136 133/216/138
f 112/196/133 122/198/135 121/211/125 113/218/124
f 144/197/134 112/196/133 111/181/118 141/183/120
f 140/182/119 111/181/118 110/193/130 137/195/132
f 132/215/137 109/217/136 114/190/127 129/192/129
f 115/185/122 139/184/121 138/177/114 116/176/113
f 128/191/128 114/190/127 113/187/124 125/189/126
f 143/172/109 123/174/111 122/198/135 144/197/134
f 139/184/121 142/186/123 141/183/120 140/182/119
f 135/175/112 138/177/114 137/195/132 136/194/131
f 131/169/106 134/171/108 133/216/138 132/215/137
f 127/166/103 130/168/105 129/192/129 128/191/128
f 124/178/115 126/180/117 125/189/126 121/188/125
f 123/174/111 120/173/110 119/219/116 124/220/115
f 118/167/104 127/166/103 126/180/117 119/179/116
f 117/170/107 131/169/106 130/168/105 118/167/104
f 116/176/113 135/175/112 134/171/108 117/170/107
f 120/173/110 143/172/109 142/186/123 115/185/122
f 109/217/136 132/215/137 133/216/138
f 163/221/139 154/222/118 166/223/140
f 167/224/141 153/225/142 170/226/143
f 179/227/144 156/228/124 159/229/125
f 171/230/138 152/231/145 174/232/146
f 160/233/135 155/234/147 162/235/148
f 147/236/104 176/237/149 177/238/150
f 175/239/151 151/240/152 178/241/153
f 149/242/154 157/243/111 161/244/155
f 150/245/122 164/246/123 165/247/121
f 146/248/107 172/249/108 173/250/156
f 148/251/157 180/252/158 158/253/115
f 145/254/159 146/255/107 147/256/104 148/257/157 149/258/154 150/259/122
f 151/260/152 152/261/145 153/262/142 154/263/118 155/264/147 156/265/124
f 157/266/111 158/267/115 159/268/125 160/269/135
f 161/244/155 162/235/148 163/221/139 164/246/123
f 165/247/121 166/223/140 167/224/141 168/270/160
f 169/271/161 170/226/143 171/230/138 172/249/108
f 173/250/156 174/232/146 175/239/151 176/237/149
f 177/238/150 178/241/153 179/227/144 180/252/158
f 172/249/108 146/248/107 145/272/159 169/271/161
f 148/251/157 158/253/115 157/266/111 149/273/154
f 180/252/158 148/251/157 147/236/104 177/238/150
f 176/237/149 147/236/104 146/248/107 173/250/156
f 168/270/160 145/272/159 150/245/122 165/247/121
f 151/240/152 175/239/151 174/232/146 152/231/145
f 164/246/123 150/245/122 149/242/154 161/244/155
f 179/227/144 159/229/125 158/253/115 180/252/158
f 175/239/151 178/241/153 177/238/150 176/237/149
f 171/230/138 174/232/146 173/250/156 172/249/108
f 167/224/141 170/226/143 169/271/161 168/270/160
f 163/221/139 166/223/140 165/247/121 164/246/123
f 160/233/135 162/235/148 161/244/155 157/243/111
f 159/229/125 156/228/124 155/274/147 160/275/135
f 154/222/118 163/221/139 162/235/148 155/234/147
f 153/225/142 167/224/141 166/223/140 154/222/118
f 152/231/145 171/230/138 170/226/143 153/225/142
f 156/228/124 179/227/144 178/241/153 151/240/152
f 145/272/159 168/270/160 169/271/161
