# Blender v2.92.0 OBJ File: 'platformLast.blend'
# www.blender.org
mtllib platform.mtl
o Cube_Cube.001
v -2.807222 -0.299482 2.807222
v -2.663606 -0.171467 3.018518
v -3.018518 -0.171467 2.663606
v -2.663606 0.182869 3.018518
v -2.807222 0.299482 2.807222
v -3.018518 0.182869 2.663606
v -2.807222 -0.299482 -2.807222
v -3.018518 -0.171467 -2.663606
v -2.663606 -0.171467 -3.018518
v -2.807222 0.299482 -2.807222
v -2.663606 0.182869 -3.018518
v -3.018518 0.182869 -2.663606
v 2.807222 -0.299482 2.807222
v 3.018518 -0.171467 2.663606
v 2.663606 -0.171467 3.018518
v 2.807222 0.299482 2.807222
v 2.663606 0.182869 3.018518
v 3.018518 0.182869 2.663606
v 2.807222 -0.299482 -2.807222
v 2.663606 -0.171467 -3.018518
v 3.018518 -0.171467 -2.663606
v 2.807222 0.299482 -2.807222
v 3.018518 0.182869 -2.663606
v 2.663606 0.182869 -3.018518
v -3.018518 -0.278519 2.807222
v -3.018518 -0.278519 -2.807222
v -2.807222 -0.278519 3.018518
v -2.807222 0.278519 3.018518
v -3.018518 0.278519 2.807222
v -3.018518 0.278519 -2.807222
v -2.807222 0.278519 -3.018518
v -2.807222 -0.278519 -3.018518
v 2.807222 -0.278519 -3.018518
v 2.807222 0.278519 -3.018518
v 3.018518 0.278519 -2.807222
v 3.018518 -0.278519 -2.807222
v 3.018518 -0.278519 2.807222
v 3.018518 0.278519 2.807222
v 2.807222 0.278519 3.018518
v 2.807222 -0.278519 3.018518
v -2.663606 -0.171467 2.953504
v -2.663606 0.182869 2.953504
v 2.663606 0.182869 2.953504
v 2.663606 -0.171467 2.953504
v -2.958052 -0.171467 2.663606
v -2.958052 -0.171467 -2.663606
v -2.958052 0.182869 2.663606
v -2.958052 0.182869 -2.663606
v -2.663606 0.182869 -2.957363
v -2.663606 -0.171467 -2.957363
v 2.663606 -0.171467 -2.957363
v 2.663606 0.182869 -2.957363
v 2.956825 0.182869 -2.663606
v 2.956825 -0.171467 -2.663606
v 2.956825 -0.171467 2.663606
v 2.956825 0.182869 2.663606
vt 0.404803 0.078799
vt 0.404803 0.021199
vt 0.408539 0.021199
vt 0.408539 0.078799
vt 0.422484 0.148718
vt 0.422484 0.110814
vt 0.426029 0.110814
vt 0.426029 0.148718
vt 0.045397 0.095731
vt 0.045397 0.033518
vt 0.358741 0.033518
vt 0.368042 0.100381
vt 0.436533 0.110814
vt 0.436533 0.148718
vt 0.433058 0.148718
vt 0.433058 0.110814
vt 0.429544 0.110814
vt 0.429544 0.148718
vt 0.426029 0.148718
vt 0.426029 0.110814
vt 0.345259 0.113188
vt 0.357401 0.113188
vt 0.371612 0.125330
vt 0.370884 0.033518
vt 0.358741 0.021376
vt 0.068350 0.102390
vt 0.068350 0.114532
vt 0.056207 0.102390
vt 0.033255 0.033518
vt 0.045397 0.021376
vt 0.350990 0.146369
vt 0.350990 0.134226
vt 0.363133 0.146369
vt 0.380185 0.100381
vt 0.368042 0.112524
vt 0.045397 0.116915
vt 0.033255 0.116915
vt 0.045397 0.104773
vt 0.045397 0.107873
vt 0.033255 0.095731
vt 0.920421 0.013760
vt 0.848667 0.021142
vt 0.883118 0.063137
vt 0.912066 0.063137
vt 0.051544 0.112783
vt 0.374189 0.112783
vt 0.374189 0.124925
vt 0.051544 0.124925
vt 0.068350 0.037077
vt 0.056207 0.037077
vt 0.051544 0.032227
vt 0.374189 0.032227
vt 0.374189 0.044369
vt 0.051544 0.044369
vt 0.891263 0.048209
vt 0.990086 0.048209
vt 0.990086 0.060351
vt 0.891263 0.060351
vt 0.364642 0.037077
vt 0.376785 0.037077
vt 0.794488 0.090588
vt 0.488349 0.090588
vt 0.480096 0.028582
vt 0.802741 0.028582
vt 0.918961 0.022013
vt 0.904069 0.029395
vt 0.794488 0.047286
vt 0.802741 0.102688
vt 0.488349 0.047286
vt 0.480096 0.102688
vt 0.106946 0.104529
vt 0.312183 0.104529
vt 0.312183 0.052623
vt 0.106946 0.052623
vt 0.794488 0.073844
vt 0.794488 0.117146
vt 0.802741 0.055140
vt 0.802741 0.129246
vt 0.488349 0.117146
vt 0.480096 0.055140
vt 0.488349 0.073844
vt 0.480096 0.129246
vt 0.876136 0.046402
vt 0.907630 0.039019
vt 0.969636 0.047273
vt 0.897882 0.054655
vt 0.319760 0.276797
vt 0.349985 0.276783
vt 0.349665 0.615026
vt 0.319439 0.615041
vt 0.408540 0.078799
vt 0.408540 0.021199
vt 0.412276 0.021199
vt 0.412276 0.078799
vt 0.415202 0.148718
vt 0.415202 0.110814
vt 0.418939 0.110814
vt 0.418939 0.148718
vt 0.415202 0.110814
vt 0.415202 0.148718
vt 0.411466 0.148718
vt 0.411466 0.110814
vt 0.558443 0.274426
vt 0.590242 0.274419
vt 0.590313 0.611870
vt 0.558514 0.611877
vt 0.433345 0.021199
vt 0.433345 0.078799
vt 0.429870 0.078799
vt 0.429870 0.021199
vt 0.436533 0.148718
vt 0.436533 0.110814
vt 0.440008 0.110814
vt 0.440008 0.148718
vt 0.426395 0.078799
vt 0.426395 0.021199
vt 0.429870 0.021199
vt 0.429870 0.078799
vt 0.085593 0.273429
vt 0.116757 0.273429
vt 0.117504 0.610543
vt 0.086340 0.610544
vt 0.429544 0.148718
vt 0.429544 0.110814
vt 0.433058 0.110814
vt 0.433058 0.148718
vt 0.426395 0.021199
vt 0.426395 0.078799
vt 0.422881 0.078799
vt 0.422881 0.021199
vt 0.422881 0.021199
vt 0.422881 0.078799
vt 0.419367 0.078799
vt 0.419367 0.021199
vt 0.809993 0.266542
vt 0.840406 0.266543
vt 0.840397 0.604440
vt 0.809984 0.604439
vt 0.419367 0.021199
vt 0.419367 0.078799
vt 0.415821 0.078799
vt 0.415821 0.021199
vt 0.412276 0.078799
vt 0.412276 0.021199
vt 0.415821 0.021199
vt 0.415821 0.078799
vt 0.422484 0.110814
vt 0.422484 0.148718
vt 0.418939 0.148718
vt 0.418939 0.110814
vn 0.0000 -1.0000 0.0000
vn 0.0000 0.0000 -1.0000
vn 0.0000 1.0000 0.0000
vn 1.0000 0.0000 0.0000
vn -0.0983 -0.9903 0.0983
vn -0.0983 0.9903 0.0983
vn -0.0983 -0.9903 -0.0983
vn -0.0983 0.9903 -0.0983
vn 0.0983 -0.9903 0.0983
vn 0.0983 0.9903 0.0983
vn 0.0983 -0.9903 -0.0983
vn 0.0983 0.9903 -0.0983
vn -0.0987 -0.9951 0.0000
vn -0.7071 0.0000 0.7071
vn -0.0987 0.9951 0.0000
vn -0.7071 0.0000 -0.7071
vn 0.0000 -0.9951 -0.0987
vn 0.0000 0.9951 -0.0987
vn 0.7071 0.0000 -0.7071
vn 0.0987 -0.9951 0.0000
vn 0.0987 0.9951 0.0000
vn 0.7071 0.0000 0.7071
vn 0.0000 -0.9951 0.0987
vn 0.0000 0.9951 0.0987
vn -1.0000 0.0000 0.0000
vn 0.0000 0.0000 1.0000
usemtl Material.001
s off
f 17/1/1 4/2/1 42/3/1 43/4/1
f 18/5/2 14/6/2 55/7/2 56/8/2
f 22/9/3 10/10/3 5/11/3 16/12/3
f 3/13/2 6/14/2 47/15/2 45/16/2
f 9/17/4 11/18/4 49/19/4 50/20/4
f 1/21/5 27/22/5 25/23/5
f 28/24/6 5/11/6 29/25/6
f 7/26/7 26/27/7 32/28/7
f 10/10/8 31/29/8 30/30/8
f 13/31/9 37/32/9 40/33/9
f 16/12/10 39/34/10 38/35/10
f 19/36/11 33/37/11 36/38/11
f 22/9/12 35/39/12 34/40/12
f 7/26/13 1/21/13 25/23/13 26/27/13
f 27/41/14 28/42/14 29/43/14 25/44/14
f 5/11/15 10/10/15 30/30/15 29/25/15
f 31/45/16 32/46/16 26/47/16 30/48/16
f 19/49/17 7/26/17 32/28/17 33/50/17
f 10/10/18 22/9/18 34/40/18 31/29/18
f 35/51/19 36/52/19 33/53/19 34/54/19
f 13/31/20 19/36/20 36/38/20 37/32/20
f 22/9/21 16/12/21 38/35/21 35/39/21
f 39/55/22 40/56/22 37/57/22 38/58/22
f 1/21/23 13/59/23 40/60/23 27/22/23
f 16/12/24 5/11/24 28/24/24 39/34/24
f 7/26/1 19/49/1 13/59/1 1/21/1
f 3/61/25 8/62/25 26/63/25 25/64/25
f 2/65/26 4/66/26 28/42/26 27/41/26
f 6/67/25 3/61/25 25/64/25 29/68/25
f 12/69/25 6/67/25 29/68/25 30/70/25
f 11/71/2 9/72/2 32/46/2 31/45/2
f 8/62/25 12/69/25 30/70/25 26/63/25
f 9/72/2 20/73/2 33/53/2 32/46/2
f 24/74/2 11/71/2 31/45/2 34/54/2
f 23/75/4 21/76/4 36/77/4 35/78/4
f 20/73/2 24/74/2 34/54/2 33/53/2
f 21/76/4 14/79/4 37/80/4 36/77/4
f 18/81/4 23/75/4 35/78/4 38/82/4
f 17/83/26 15/84/26 40/85/26 39/86/26
f 14/79/4 18/81/4 38/82/4 37/80/4
f 15/84/26 2/65/26 27/41/26 40/85/26
f 4/66/26 17/83/26 39/86/26 28/42/26
f 44/87/26 43/88/26 42/89/26 41/90/26
f 2/91/3 15/92/3 44/93/3 41/94/3
f 4/95/4 2/96/4 41/97/4 42/98/4
f 15/99/25 17/100/25 43/101/25 44/102/25
f 45/103/25 47/104/25 48/105/25 46/106/25
f 8/107/3 3/108/3 45/109/3 46/110/3
f 12/111/26 8/112/26 46/113/26 48/114/26
f 6/115/1 12/116/1 48/117/1 47/118/1
f 50/119/2 49/120/2 52/121/2 51/122/2
f 24/123/25 20/124/25 51/125/25 52/126/25
f 11/127/1 24/128/1 52/129/1 49/130/1
f 20/131/3 9/132/3 50/133/3 51/134/3
f 54/135/4 53/136/4 56/137/4 55/138/4
f 23/139/1 18/140/1 56/141/1 53/142/1
f 14/143/3 21/144/3 54/145/3 55/146/3
f 21/147/26 23/148/26 53/149/26 54/150/26
