# Blender v2.91.0 OBJ File: ''
# www.blender.org
mtllib RunaPiedrecita1.mtl
o Esfera_geodésica.009
v -0.018017 -0.055197 -0.035370
v -0.040499 -0.053376 -0.008904
v -0.030770 0.010609 -0.038038
v -0.011124 -0.043679 -0.040846
v -0.024134 0.023450 -0.043567
v 0.014090 0.020543 -0.048829
v 0.039555 -0.054260 0.008481
v 0.016213 -0.086008 0.003259
v 0.028392 -0.054260 -0.026355
v -0.053226 -0.008666 0.004809
v -0.049591 -0.028326 0.004809
v -0.050334 0.004393 0.014587
v 0.017812 0.014500 0.048735
v 0.038581 0.027543 0.023330
v 0.008426 0.037958 0.045777
v 0.014132 0.084794 0.004833
v 0.017437 0.049492 -0.033538
v -0.002621 0.090457 -0.007338
v -0.002363 0.089379 0.004095
v 0.002595 0.064549 0.031963
v 0.011740 0.084613 0.014342
v -0.022943 0.031415 0.038367
v 0.005549 0.019336 0.049456
v -0.001946 0.038072 0.047094
v 0.013867 0.036205 -0.045545
v -0.023895 0.039077 -0.040347
v -0.008940 0.082783 -0.015755
v 0.048947 0.035325 0.002806
v 0.027105 0.035325 -0.036881
v 0.023313 0.075833 0.007148
v 0.030277 -0.031784 -0.036555
v 0.027143 0.019747 -0.044466
v 0.048431 0.019747 -0.005786
v 0.045362 -0.039204 0.008999
v 0.034158 -0.039204 -0.025967
v 0.051695 0.010577 0.003758
v -0.039180 0.009979 -0.027167
v -0.046775 -0.039970 -0.004424
v -0.052300 -0.010081 -0.004424
v -0.030601 0.040336 -0.032869
v -0.042207 0.040060 0.017165
v -0.015189 0.085377 -0.007526
v 0.008964 0.052482 0.038336
v 0.043128 0.040682 0.012905
v 0.020142 0.077004 0.016798
v -0.039118 0.040507 0.027206
v -0.006082 0.050981 0.040938
v -0.012804 0.084644 0.003157
v 0.000588 -0.089266 0.000513
v -0.036031 -0.065759 -0.004097
v -0.014132 -0.067533 -0.029876
v -0.052710 0.004700 -0.000137
v -0.048187 0.025123 0.015156
v -0.039212 0.025336 -0.023535
v -0.001268 -0.033668 0.047570
v 0.009558 -0.001179 0.050906
v -0.030679 0.015879 0.035246
v -0.042192 -0.051475 0.006952
v -0.009335 -0.041766 0.041580
v -0.043727 0.016172 0.027168
v 0.044250 -0.033535 0.017979
v 0.050612 0.016476 0.012714
v 0.025792 0.000889 0.043073
v 0.022705 -0.041275 -0.040372
v -0.000948 -0.050580 -0.040504
v 0.020022 0.002834 -0.047144
v 0.007188 -0.039786 0.045845
v 0.034161 -0.039786 0.026414
v 0.017526 -0.008762 0.049030
v 0.012970 -0.085858 0.012619
v 0.035856 -0.054731 0.017739
v 0.006755 -0.054731 0.038702
v 0.003325 -0.088615 0.010881
v -0.003304 -0.055416 0.038700
v -0.034179 -0.064539 0.006160
v -0.004837 -0.065586 -0.034363
v 0.009032 -0.086063 -0.005730
v 0.020749 -0.055521 -0.034220
vt 0.322992 0.135188
vt 0.224492 0.148413
vt 0.308134 0.250653
vt 0.352096 0.153100
vt 0.336940 0.270888
vt 0.445922 0.261040
vt 0.656694 0.147608
vt 0.627818 0.096904
vt 0.539601 0.147608
vt 0.160845 0.223807
vt 0.144986 0.182438
vt 0.134876 0.242128
vt 0.812237 0.253168
vt 0.725559 0.273879
vt 0.837271 0.295949
vt 0.570413 0.390598
vt 0.502168 0.319190
vt 0.529434 0.413832
vt 0.909297 0.409369
vt 0.874901 0.350517
vt 0.874591 0.390172
vt 0.921466 0.285656
vt 0.849042 0.262718
vt 0.869037 0.296886
vt 0.445351 0.289696
vt 0.337686 0.299425
vt 0.359964 0.383679
vt 0.635934 0.287257
vt 0.511108 0.287257
vt 0.589415 0.369193
vt 0.510097 0.182202
vt 0.495019 0.260384
vt 0.616676 0.260384
vt 0.661180 0.170943
vt 0.543652 0.170943
vt 0.646613 0.246472
vt 0.269971 0.253361
vt 0.204676 0.173548
vt 0.197893 0.225739
vt 0.284751 0.300459
vt 0.136333 0.300767
vt 0.188859 0.374106
vt 0.820547 0.323313
vt 0.693984 0.298309
vt 0.736219 0.371781
vt 0.966492 0.305265
vt 0.883998 0.322934
vt 0.930628 0.402721
vt 0.272281 0.030019
vt 0.220967 0.120204
vt 0.316911 0.107322
vt 0.184452 0.249586
vt 0.143835 0.278240
vt 0.258602 0.278002
vt 0.865759 0.179784
vt 0.838278 0.228037
vt 0.940555 0.260430
vt 0.121264 0.136793
vt 0.023750 0.165901
vt 0.100361 0.260203
vt 0.692093 0.179376
vt 0.677459 0.255253
vt 0.781045 0.230502
vt 0.476350 0.165839
vt 0.385408 0.142987
vt 0.463443 0.232761
vt 0.837783 0.169795
vt 0.731374 0.169795
vt 0.811541 0.215871
vt 0.797058 0.082743
vt 0.718332 0.144324
vt 0.833134 0.144324
vt 0.066849 0.060038
vt 0.021140 0.139210
vt 0.112772 0.111857
vt 0.342859 0.095722
vt 0.318059 0.120589
vt 0.322160 0.120038
vt 0.340601 0.117562
vt 0.339571 0.115779
vt 0.847701 0.295480
vt 0.862781 0.312407
vt 0.869594 0.313777
vt 0.882915 0.310923
vt 0.859212 0.306309
vt 0.281323 0.243050
vt 0.289649 0.253227
vt 0.314011 0.283006
vt 0.318592 0.288606
vt 0.321397 0.266807
vt 0.439830 0.257073
vt 0.471063 0.267649
vt 0.476848 0.274305
vt 0.476931 0.273878
vt 0.480251 0.256660
vt 0.484182 0.236279
vt 0.674901 0.270150
vt 0.651895 0.269338
vt 0.634376 0.256486
vt 0.618133 0.274305
vt 0.639560 0.274305
vt 0.656209 0.274305
vt 0.347187 0.396750
vt 0.351338 0.412450
vt 0.351338 0.412450
vt 0.362489 0.400178
vt 0.289211 0.028552
vt 0.276263 0.006125
vt 0.272727 0.000000
vt 0.263304 0.016560
vt 0.009062 0.129293
vt 0.000831 0.156021
vt 0.000524 0.157305
vt 0.021611 0.151010
vt 0.019404 0.151669
vt 0.703019 0.140395
vt 0.681202 0.157461
vt 0.690821 0.157461
vt 0.732806 0.157461
vt 0.210750 0.108926
vt 0.197657 0.131936
vt 0.194689 0.137153
vt 0.201778 0.136201
vt 0.223660 0.133263
vt 0.519770 0.145743
vt 0.499383 0.157461
vt 0.508438 0.157461
vt 0.544505 0.157461
vt 0.139481 0.278594
vt 0.149558 0.258950
vt 0.111261 0.263287
vt 0.109837 0.271690
vt 0.106898 0.289045
vt 0.106898 0.289045
vt 0.116042 0.282594
vt 0.180097 0.249940
vt 0.176377 0.221999
vt 0.177778 0.225653
vt 0.604610 0.383084
vt 0.603013 0.372332
vt 0.578424 0.380588
vt 0.590909 0.393651
vt 0.331264 0.101390
vt 0.740362 0.386128
vt 0.809356 0.346473
vt 0.437584 0.317522
vt 0.467277 0.149393
vt 0.368901 0.124674
vt 0.010132 0.169933
vt 0.075648 0.250578
vt 0.152266 0.159106
vt 0.547845 0.418067
vt 0.582342 0.398509
vt 0.324229 0.309923
vt 0.116921 0.303040
vt 0.168080 0.374470
vt 0.597800 0.381513
vt 0.639514 0.308040
vt 0.604638 0.096965
vt 0.783316 0.077585
vt 0.057706 0.057509
vt 0.014850 0.131739
vt 0.467962 0.067260
vt 0.411382 0.114933
vt 0.481214 0.139653
vn -0.5202 -0.3292 -0.7881
vn -0.8625 -0.3534 -0.3623
vn -0.6780 -0.0506 -0.7333
vn -0.2643 -0.1782 -0.9478
vn -0.4601 0.0786 -0.8844
vn 0.1377 0.1586 -0.9777
vn 0.8803 -0.4701 0.0643
vn 0.5839 -0.8081 -0.0775
vn 0.7643 -0.4741 -0.4371
vn -0.9797 -0.0914 0.1786
vn -0.9362 -0.2237 0.2709
vn -0.9003 -0.0320 0.4341
vn 0.4742 0.1563 0.8664
vn 0.7620 0.2451 0.5994
vn 0.3514 0.3378 0.8732
vn 0.5613 0.8129 -0.1552
vn 0.4832 0.5681 -0.6662
vn 0.0915 0.9409 -0.3261
vn -0.1365 0.9460 0.2942
vn -0.0436 0.6300 0.7754
vn 0.2407 0.8376 0.4904
vn -0.5009 0.1347 0.8549
vn -0.0791 0.0667 0.9946
vn -0.1578 0.2398 0.9579
vn 0.1759 0.3521 -0.9193
vn -0.4453 0.3508 -0.8238
vn -0.2034 0.7218 -0.6615
vn 0.9336 0.3541 -0.0550
vn 0.6743 0.3554 -0.6473
vn 0.7771 0.6199 -0.1089
vn 0.7555 -0.1489 -0.6380
vn 0.6713 0.1745 -0.7203
vn 0.9590 0.1173 -0.2579
vn 0.9630 -0.2643 0.0531
vn 0.8755 -0.2462 -0.4159
vn 0.9998 -0.0185 -0.0056
vn -0.8293 0.0019 -0.5588
vn -0.9189 -0.2790 -0.2788
vn -0.9384 -0.0854 -0.3349
vn -0.7928 0.3615 -0.4908
vn -0.8928 0.4105 0.1853
vn -0.6517 0.7412 -0.1609
vn 0.3769 0.4374 0.8165
vn 0.8361 0.3715 0.4037
vn 0.6132 0.5984 0.5156
vn -0.6999 0.3817 0.6038
vn -0.2379 0.4942 0.8362
vn -0.5559 0.7675 0.3193
vn -0.2076 -0.9698 -0.1280
vn -0.7529 -0.6368 -0.1663
vn -0.3927 -0.6587 -0.6418
vn -0.9773 0.1544 -0.1452
vn -0.9303 0.2633 0.2556
vn -0.8814 0.2432 -0.4050
vn -0.2089 -0.1757 0.9620
vn -0.0053 -0.0055 1.0000
vn -0.5575 0.0119 0.8301
vn -0.8404 -0.3703 0.3958
vn -0.4646 -0.3031 0.8321
vn -0.7090 -0.0148 0.7051
vn 0.8676 -0.1805 0.4632
vn 0.9133 0.0909 0.3971
vn 0.6363 0.0094 0.7714
vn 0.4324 -0.2753 -0.8586
vn -0.0099 -0.3024 -0.9531
vn 0.2806 -0.0602 -0.9579
vn 0.2329 -0.3226 0.9174
vn 0.6711 -0.2877 0.6832
vn 0.3961 -0.1187 0.9105
vn 0.3999 -0.7965 0.4535
vn 0.7129 -0.4600 0.5292
vn 0.2347 -0.4930 0.8378
vn -0.1402 -0.9104 0.3892
vn -0.2866 -0.5165 0.8069
vn -0.7004 -0.5978 0.3899
vn -0.0058 -0.6007 -0.7994
vn 0.2682 -0.8635 -0.4270
vn 0.4654 -0.5263 -0.7116
usemtl None
s 1
f 1/1/1 2/2/2 3/3/3
f 4/4/4 5/5/5 6/6/6
f 7/7/7 8/8/8 9/9/9
f 10/10/10 11/11/11 12/12/12
f 13/13/13 14/14/14 15/15/15
f 16/16/16 17/17/17 18/18/18
f 19/19/19 20/20/20 21/21/21
f 22/22/22 23/23/23 24/24/24
f 25/25/25 26/26/26 27/27/27
f 28/28/28 29/29/29 30/30/30
f 31/31/31 32/32/32 33/33/33
f 34/34/34 35/35/35 36/36/36
f 37/37/37 38/38/38 39/39/39
f 40/40/40 41/41/41 42/42/42
f 43/43/43 44/44/44 45/45/45
f 46/46/46 47/47/47 48/48/48
f 49/49/49 50/50/50 51/51/51
f 52/52/52 53/53/53 54/54/54
f 55/55/55 56/56/56 57/57/57
f 58/58/58 59/59/59 60/60/60
f 61/61/61 62/62/62 63/63/63
f 64/64/64 65/65/65 66/66/66
f 67/67/67 68/68/68 69/69/69
f 70/70/70 71/71/71 72/72/72
f 73/73/73 74/74/74 75/75/75
f 76/76/76 51/77/51 1/78/1 4/79/4 65/80/65
f 15/81/15 43/82/43 20/83/20 47/84/47 24/85/24
f 3/3/3 37/86/37 54/87/54 40/88/40 26/89/26 5/90/5
f 6/91/6 25/92/25 17/93/17 29/94/29 32/95/32 66/96/66
f 14/97/14 62/98/62 36/99/36 33/100/33 28/101/28 44/102/44
f 27/27/27 42/103/42 48/104/48 19/105/19 18/106/18
f 49/49/49 77/107/77 8/108/8 70/109/70 73/110/73
f 72/111/72 67/112/67 55/113/55 59/114/59 74/115/74
f 71/71/71 7/116/7 34/117/34 61/118/61 68/119/68
f 50/50/50 75/120/75 58/121/58 11/122/11 38/123/38 2/124/2
f 9/9/9 78/125/78 64/126/64 31/127/31 35/128/35
f 13/13/13 23/23/23 56/56/56 69/69/69 63/63/63
f 53/129/53 12/130/12 60/131/60 57/132/57 22/133/22 46/134/46 41/135/41
f 52/136/52 39/137/39 10/138/10
f 45/139/45 30/140/30 16/141/16 21/142/21
f 76/143/76 77/107/77 49/49/49 51/51/51
f 2/2/2 1/1/1 51/51/51 50/50/50
f 5/5/5 4/4/4 1/1/1 3/3/3
f 52/52/52 54/54/54 37/37/37 39/39/39
f 44/44/44 43/43/43 15/15/15 14/14/14
f 41/41/41 40/40/40 54/54/54 53/53/53
f 26/26/26 25/25/25 6/6/6 5/5/5
f 29/29/29 28/28/28 33/33/33 32/32/32
f 21/144/21 20/145/20 43/43/43 45/45/45
f 18/106/18 17/146/17 25/25/25 27/27/27
f 68/68/68 67/67/67 72/72/72 71/71/71
f 35/35/35 34/34/34 7/7/7 9/9/9
f 59/59/59 58/58/58 75/75/75 74/74/74
f 65/65/65 64/64/64 78/147/78 76/148/76
f 31/31/31 33/33/33 36/36/36 35/35/35
f 24/24/24 23/23/23 13/13/13 15/15/15
f 61/61/61 63/63/63 69/69/69 68/68/68
f 55/149/55 57/150/57 60/60/60 59/59/59
f 11/11/11 10/10/10 39/137/39 38/151/38
f 4/4/4 6/6/6 66/66/66 65/65/65
f 19/152/19 21/153/21 16/16/16 18/18/18
f 30/30/30 29/29/29 17/17/17 16/16/16
f 27/27/27 26/26/26 40/154/40 42/103/42
f 42/42/42 41/41/41 46/155/46 48/156/48
f 48/48/48 47/47/47 20/20/20 19/19/19
f 45/157/45 44/158/44 28/28/28 30/30/30
f 22/22/22 24/24/24 47/47/47 46/46/46
f 57/57/57 56/56/56 23/23/23 22/22/22
f 63/63/63 62/62/62 14/14/14 13/13/13
f 32/32/32 31/31/31 64/64/64 66/66/66
f 3/3/3 2/2/2 38/38/38 37/37/37
f 10/10/10 12/12/12 53/53/53 52/52/52
f 12/12/12 11/11/11 58/58/58 60/60/60
f 56/56/56 55/55/55 67/67/67 69/69/69
f 62/62/62 61/61/61 34/34/34 36/36/36
f 77/159/77 78/125/78 9/9/9 8/8/8
f 50/50/50 49/49/49 73/110/73 75/120/75
f 71/71/71 70/70/70 8/160/8 7/116/7
f 70/161/70 72/162/72 74/74/74 73/73/73
f 77/163/77 76/164/76 78/165/78
