####
#
# OBJ File Generated by Meshlab
#
####
# Object RunokEyes.obj
#
# Vertices: 114
# Faces: 96
#
####
mtllib ./RunokEyes.obj.mtl

vn -0.699408 0.627360 -0.342414
v -0.504469 1.944340 0.175770
vn -0.933541 -0.031878 -0.357051
v -0.550573 1.821152 0.175770
vn -0.683224 0.636956 0.357061
v -0.504469 1.944340 0.307304
vn -0.939454 -0.013995 0.342389
v -0.550573 1.821152 0.307304
vn -0.380186 0.737809 0.557760
v -0.491553 1.949749 0.316897
vn -0.164691 0.748058 0.642873
v -0.475927 1.949047 0.321715
vn -0.615268 -0.456192 0.642910
v -0.532134 1.798863 0.321715
vn -0.765531 -0.313438 0.561889
v -0.544382 1.808592 0.316897
vn -0.912247 0.159127 0.377471
v -0.544624 1.847484 0.316897
vn -0.862372 0.322755 0.390057
v -0.532668 1.884672 0.321715
vn -0.788101 0.482365 0.382388
v -0.517271 1.920572 0.316897
vn -0.720105 0.672534 -0.170723
v -0.504533 1.954607 0.202518
vn -0.725664 0.688049 0.000011
v -0.504565 1.959764 0.241537
vn -0.715606 0.676090 0.175530
v -0.504533 1.954607 0.280556
vn -0.984716 -0.034503 0.170719
v -0.557361 1.813450 0.280556
vn -0.999094 -0.042567 -0.000008
v -0.560772 1.809581 0.241537
vn -0.983656 -0.040135 -0.175526
v -0.557361 1.813450 0.202518
vn -0.911149 0.153588 -0.382384
v -0.544624 1.847484 0.166177
vn -0.862381 0.322734 -0.390054
v -0.532668 1.884672 0.161359
vn -0.792565 0.478908 -0.377477
v -0.517271 1.920572 0.166177
vn -0.164616 0.748060 -0.642890
v -0.475927 1.949047 0.161359
vn -0.371657 0.739024 -0.561885
v -0.491553 1.949749 0.166177
vn -0.771168 -0.306926 -0.557761
v -0.544382 1.808592 0.166177
vn -0.615334 -0.456139 -0.642885
v -0.532134 1.798863 0.161359
vn -0.277236 0.448394 0.849755
v -0.488672 1.914994 0.344373
vn -0.388304 0.144233 0.910174
v -0.504031 1.873955 0.351960
vn -0.503883 -0.154796 0.849788
v -0.519390 1.832916 0.344373
vn -0.502307 0.483238 0.717055
v -0.504308 1.918460 0.337423
vn -0.608847 0.227194 0.760058
v -0.519682 1.879812 0.344373
vn -0.692915 -0.032653 0.720280
v -0.533460 1.840567 0.337423
vn -0.862877 0.482746 0.149667
v -0.523703 1.925719 0.283122
vn -0.925701 0.346594 0.151495
v -0.540761 1.887701 0.285356
vn -0.967997 0.198970 0.152946
v -0.552855 1.847825 0.283122
vn -0.872650 0.488346 0.000141
v -0.525402 1.928740 0.241537
vn -0.936559 0.350510 -0.000000
v -0.543471 1.888715 0.241537
vn -0.978849 0.204586 -0.000145
v -0.556120 1.846662 0.241537
vn -0.860784 0.485450 -0.152939
v -0.523703 1.925719 0.199952
vn -0.925798 0.346334 -0.151497
v -0.540761 1.887701 0.197718
vn -0.967801 0.202388 -0.149667
v -0.552855 1.847825 0.199952
vn -0.501215 0.479563 -0.720280
v -0.504308 1.918460 0.145651
vn -0.608406 0.228366 -0.760060
v -0.519682 1.879812 0.138701
vn -0.696151 -0.034713 -0.717056
v -0.533460 1.840567 0.145651
vn -0.278455 0.447590 -0.849780
v -0.488672 1.914994 0.138701
vn -0.387586 0.146152 -0.910174
v -0.504031 1.873955 0.131114
vn -0.503493 -0.156204 -0.849762
v -0.519390 1.832916 0.138701
vn -0.092492 0.941946 0.322774
v -0.467986 1.970267 0.285356
vn -0.347901 0.895822 0.276527
v -0.485275 1.969317 0.283122
vn -0.068856 0.997626 -0.001032
v -0.465326 1.977372 0.241537
vn -0.342194 0.939629 -0.000633
v -0.483637 1.976125 0.241537
vn -0.093304 0.942270 -0.321591
v -0.467986 1.970267 0.197718
vn -0.344601 0.898035 -0.273464
v -0.485275 1.969317 0.199952
vn -0.849539 -0.451119 0.273451
v -0.552493 1.789710 0.283122
vn -0.689028 -0.649478 0.321588
v -0.540076 1.777642 0.285356
vn -0.875027 -0.484074 0.000635
v -0.555727 1.783500 0.241537
vn -0.706956 -0.707256 0.001028
v -0.542735 1.770537 0.241537
vn -0.850568 -0.447289 -0.276525
v -0.552493 1.789710 0.199952
vn -0.688212 -0.649755 -0.322773
v -0.540076 1.777642 0.197718
vn -0.699408 0.627360 0.342414
v -0.504469 1.944340 -0.175770
vn -0.933540 -0.031875 0.357052
v -0.550573 1.821152 -0.175770
vn -0.683224 0.636956 -0.357061
v -0.504469 1.944340 -0.307304
vn -0.939455 -0.013993 -0.342387
v -0.550573 1.821152 -0.307304
vn -0.380165 0.737814 -0.557768
v -0.491553 1.949749 -0.316897
vn -0.164661 0.748053 -0.642887
v -0.475927 1.949046 -0.321715
vn -0.615268 -0.456192 -0.642910
v -0.532134 1.798863 -0.321715
vn -0.765531 -0.313438 -0.561889
v -0.544382 1.808592 -0.316897
vn -0.912247 0.159127 -0.377471
v -0.544624 1.847484 -0.316897
vn -0.862372 0.322755 -0.390057
v -0.532668 1.884672 -0.321715
vn -0.788101 0.482365 -0.382388
v -0.517271 1.920572 -0.316897
vn -0.720105 0.672534 0.170723
v -0.504533 1.954607 -0.202518
vn -0.725664 0.688049 -0.000011
v -0.504565 1.959764 -0.241537
vn -0.715606 0.676090 -0.175530
v -0.504533 1.954607 -0.280556
vn -0.984715 -0.034510 -0.170721
v -0.557361 1.813449 -0.280556
vn -0.999094 -0.042565 0.000009
v -0.560772 1.809581 -0.241537
vn -0.983656 -0.040141 0.175527
v -0.557361 1.813449 -0.202518
vn -0.911149 0.153588 0.382384
v -0.544624 1.847484 -0.166177
vn -0.862381 0.322734 0.390054
v -0.532668 1.884672 -0.161359
vn -0.792565 0.478908 0.377477
v -0.517271 1.920572 -0.166177
vn -0.164576 0.748053 0.642908
v -0.475927 1.949046 -0.161359
vn -0.371640 0.739028 0.561891
v -0.491553 1.949749 -0.166177
vn -0.771167 -0.306926 0.557761
v -0.544382 1.808592 -0.166177
vn -0.615334 -0.456139 0.642885
v -0.532134 1.798863 -0.161359
vn -0.277233 0.448400 -0.849752
v -0.488672 1.914994 -0.344373
vn -0.388304 0.144233 -0.910174
v -0.504031 1.873955 -0.351960
vn -0.503883 -0.154796 -0.849788
v -0.519390 1.832916 -0.344373
vn -0.502305 0.483240 -0.717056
v -0.504308 1.918460 -0.337423
vn -0.608847 0.227194 -0.760058
v -0.519682 1.879812 -0.344373
vn -0.692915 -0.032653 -0.720280
v -0.533460 1.840567 -0.337423
vn -0.862877 0.482746 -0.149667
v -0.523703 1.925719 -0.283122
vn -0.925701 0.346594 -0.151495
v -0.540761 1.887701 -0.285356
vn -0.967997 0.198969 -0.152946
v -0.552855 1.847825 -0.283122
vn -0.872650 0.488346 -0.000141
v -0.525402 1.928740 -0.241537
vn -0.936559 0.350510 0.000000
v -0.543471 1.888715 -0.241537
vn -0.978849 0.204586 0.000145
v -0.556120 1.846662 -0.241537
vn -0.860784 0.485450 0.152939
v -0.523703 1.925719 -0.199952
vn -0.925798 0.346334 0.151497
v -0.540761 1.887701 -0.197718
vn -0.967801 0.202387 0.149666
v -0.552855 1.847825 -0.199952
vn -0.501215 0.479563 0.720280
v -0.504308 1.918460 -0.145651
vn -0.608406 0.228366 0.760060
v -0.519682 1.879812 -0.138701
vn -0.696151 -0.034713 0.717056
v -0.533460 1.840567 -0.145651
vn -0.278451 0.447591 0.849781
v -0.488672 1.914994 -0.138701
vn -0.387586 0.146152 0.910174
v -0.504031 1.873955 -0.131114
vn -0.503493 -0.156204 0.849762
v -0.519390 1.832916 -0.138701
vn -0.092493 0.941943 -0.322783
v -0.467986 1.970267 -0.285356
vn -0.347899 0.895822 -0.276532
v -0.485275 1.969317 -0.283122
vn -0.068856 0.997626 0.001032
v -0.465326 1.977372 -0.241537
vn -0.342194 0.939629 0.000633
v -0.483637 1.976125 -0.241537
vn -0.093298 0.942270 0.321595
v -0.467986 1.970267 -0.197718
vn -0.344601 0.898035 0.273464
v -0.485275 1.969317 -0.199952
vn -0.849537 -0.451121 -0.273452
v -0.552493 1.789710 -0.283122
vn -0.689028 -0.649478 -0.321588
v -0.540076 1.777642 -0.285356
vn -0.875027 -0.484074 -0.000634
v -0.555727 1.783500 -0.241537
vn -0.706956 -0.707256 -0.001028
v -0.542735 1.770537 -0.241537
vn -0.850567 -0.447291 0.276525
v -0.552493 1.789710 -0.199952
vn -0.688212 -0.649755 0.322774
v -0.540076 1.777642 -0.197718
# 114 vertices, 0 vertices normals


usemtl material_0
vt 0.000000 0.000000
vt 0.000000 0.000000
f 25/1/25 28/1/28 29/1/29 26/2/26
f 26/1/26 29/1/29 30/1/30 27/2/27
f 27/1/27 30/1/30 8/1/8 7/2/7
f 30/1/30 9/1/9 4/1/4 8/2/8
f 29/1/29 10/1/10 9/1/9 30/2/30
f 28/1/28 11/1/11 10/1/10 29/2/29
f 5/1/5 3/1/3 11/1/11 28/2/28
f 6/1/6 5/1/5 28/1/28 25/2/25
f 31/1/31 34/1/34 35/1/35 32/2/32
f 32/1/32 35/1/35 36/1/36 33/2/33
f 34/1/34 37/1/37 38/1/38 35/2/35
f 35/1/35 38/1/38 39/1/39 36/2/36
f 3/1/3 14/1/14 31/1/31 11/2/11
f 11/1/11 31/1/31 32/1/32 10/2/10
f 10/1/10 32/1/32 33/1/33 9/2/9
f 9/1/9 33/1/33 15/1/15 4/2/4
f 33/1/33 36/1/36 16/1/16 15/2/15
f 36/1/36 39/1/39 17/1/17 16/2/16
f 39/1/39 18/1/18 2/1/2 17/2/17
f 38/1/38 19/1/19 18/1/18 39/2/39
f 37/1/37 20/1/20 19/1/19 38/2/38
f 12/1/12 1/1/1 20/1/20 37/2/37
f 13/1/13 12/1/12 37/1/37 34/2/34
f 14/1/14 13/1/13 34/1/34 31/2/31
f 40/1/40 43/1/43 44/1/44 41/2/41
f 41/1/41 44/1/44 45/1/45 42/2/42
f 1/1/1 22/1/22 40/1/40 20/2/20
f 20/1/20 40/1/40 41/1/41 19/2/19
f 19/1/19 41/1/41 42/1/42 18/2/18
f 18/1/18 42/1/42 23/1/23 2/2/2
f 42/1/42 45/1/45 24/1/24 23/2/23
f 22/1/22 21/1/21 43/1/43 40/2/40
f 46/1/46 48/1/48 49/1/49 47/2/47
f 48/1/48 50/1/50 51/1/51 49/2/49
f 6/1/6 46/1/46 47/1/47 5/2/5
f 5/1/5 47/1/47 14/1/14 3/2/3
f 47/1/47 49/1/49 13/1/13 14/2/14
f 49/1/49 51/1/51 12/1/12 13/2/13
f 51/1/51 22/1/22 1/1/1 12/2/12
f 50/1/50 21/1/21 22/1/22 51/2/51
f 52/1/52 54/1/54 55/1/55 53/2/53
f 54/1/54 56/1/56 57/1/57 55/2/55
f 4/1/4 15/1/15 52/1/52 8/2/8
f 8/1/8 52/1/52 53/1/53 7/2/7
f 56/1/56 23/1/23 24/1/24 57/2/57
f 17/1/17 2/1/2 23/1/23 56/2/56
f 16/1/16 17/1/17 56/1/56 54/2/54
f 15/1/15 16/1/16 54/1/54 52/2/52
f 82/1/82 83/1/83 86/1/86 85/2/85
f 83/1/83 84/1/84 87/1/87 86/2/86
f 84/1/84 64/1/64 65/1/65 87/2/87
f 87/1/87 65/1/65 61/1/61 66/2/66
f 86/1/86 87/1/87 66/1/66 67/2/67
f 85/1/85 86/1/86 67/1/67 68/2/68
f 62/1/62 85/1/85 68/1/68 60/2/60
f 63/1/63 82/1/82 85/1/85 62/2/62
f 88/1/88 89/1/89 92/1/92 91/2/91
f 89/1/89 90/1/90 93/1/93 92/2/92
f 91/1/91 92/1/92 95/1/95 94/2/94
f 92/1/92 93/1/93 96/1/96 95/2/95
f 60/1/60 68/1/68 88/1/88 71/2/71
f 68/1/68 67/1/67 89/1/89 88/2/88
f 67/1/67 66/1/66 90/1/90 89/2/89
f 66/1/66 61/1/61 72/1/72 90/2/90
f 90/1/90 72/1/72 73/1/73 93/2/93
f 93/1/93 73/1/73 74/1/74 96/2/96
f 96/1/96 74/1/74 59/1/59 75/2/75
f 95/1/95 96/1/96 75/1/75 76/2/76
f 94/1/94 95/1/95 76/1/76 77/2/77
f 69/1/69 94/1/94 77/1/77 58/2/58
f 70/1/70 91/1/91 94/1/94 69/2/69
f 71/1/71 88/1/88 91/1/91 70/2/70
f 97/1/97 98/1/98 101/1/101 100/2/100
f 98/1/98 99/1/99 102/1/102 101/2/101
f 58/1/58 77/1/77 97/1/97 79/2/79
f 77/1/77 76/1/76 98/1/98 97/2/97
f 76/1/76 75/1/75 99/1/99 98/2/98
f 75/1/75 59/1/59 80/1/80 99/2/99
f 99/1/99 80/1/80 81/1/81 102/2/102
f 79/1/79 97/1/97 100/1/100 78/2/78
f 103/1/103 104/1/104 106/1/106 105/2/105
f 105/1/105 106/1/106 108/1/108 107/2/107
f 63/1/63 62/1/62 104/1/104 103/2/103
f 62/1/62 60/1/60 71/1/71 104/2/104
f 104/1/104 71/1/71 70/1/70 106/2/106
f 106/1/106 70/1/70 69/1/69 108/2/108
f 108/1/108 69/1/69 58/1/58 79/2/79
f 107/1/107 108/1/108 79/1/79 78/2/78
f 109/1/109 110/1/110 112/1/112 111/2/111
f 111/1/111 112/1/112 114/1/114 113/2/113
f 61/1/61 65/1/65 109/1/109 72/2/72
f 65/1/65 64/1/64 110/1/110 109/2/109
f 113/1/113 114/1/114 81/1/81 80/2/80
f 74/1/74 113/1/113 80/1/80 59/2/59
f 73/1/73 111/1/111 113/1/113 74/2/74
f 72/1/72 109/1/109 111/1/111 73/1/73
# 96 faces, 2 coords texture

# End of File
